<svg aria-hidden="true" xmlns="http://www.w3.org/2000/svg" xmlns:xlink="http://www.w3.org/1999/xlink"><symbol fill="none" viewBox="0 0 10 10" id="arrow" xmlns="http://www.w3.org/2000/svg"><path d="M9.947 9.52c.03-3.258.012-6.256.051-9.122C6.743.432 3.74.41.878.451.866 1.195.865 1.764.856 2.476c1.953-.01 3.973-.017 5.667-.027L.398 8.575l1.424 1.423 6.126-6.124C7.93 5.76 7.94 7.649 7.915 9.535c.688 0 1.43-.014 2.032-.015Z" fill="currentColor"/></symbol><symbol fill="none" viewBox="0 0 22 32" id="calc" xmlns="http://www.w3.org/2000/svg"><path d="M3.143 0h15.714c.834 0 1.633.337 2.223.937.589.6.92 1.414.92 2.263v25.6a3.23 3.23 0 0 1-.92 2.263c-.59.6-1.39.937-2.223.937H3.143a3.114 3.114 0 0 1-2.222-.937A3.23 3.23 0 0 1 0 28.8V3.2C0 2.351.331 1.537.92.937 1.51.337 2.31 0 3.144 0Zm0 3.2v6.4h15.714V3.2H3.143Zm0 9.6V16h3.143v-3.2H3.143Zm6.286 0V16h3.142v-3.2H9.43Zm6.285 0V16h3.143v-3.2h-3.143ZM3.143 19.2v3.2h3.143v-3.2H3.143Zm6.286 0v3.2h3.142v-3.2H9.43Zm6.285 0v3.2h3.143v-3.2h-3.143ZM3.143 25.6v3.2h3.143v-3.2H3.143Zm6.286 0v3.2h3.142v-3.2H9.43Zm6.285 0v3.2h3.143v-3.2h-3.143Z" fill="currentColor"/></symbol><symbol fill="none" viewBox="0 0 20 20" id="copy" xmlns="http://www.w3.org/2000/svg"><path d="m10.75 3.75 2-2c1-1 3-1 4 0l1 1c1 1 1 3 0 4l-5 5c-1 1-3 1-4 0m0 4-2 2c-1 1-3 1-4 0l-1-1c-1-1-1-3 0-4l5-5c1-1 3-1 4 0" stroke="currentColor" stroke-width="2" stroke-linecap="round" stroke-linejoin="round"/></symbol><symbol fill="none" viewBox="0 0 21 24" id="del" xmlns="http://www.w3.org/2000/svg"><path d="m14.143 1.81.36 2.498h4.882a.923.923 0 1 1 0 1.846h-.947l-1.074 12.535c-.066.763-.119 1.391-.203 1.898-.087.528-.218 1-.476 1.439a4 4 0 0 1-1.724 1.584c-.458.218-.94.308-1.474.35-.514.04-1.142.04-1.908.04H8.73c-.766 0-1.395 0-1.908-.04-.534-.043-1.017-.132-1.475-.35a4 4 0 0 1-1.724-1.584c-.258-.438-.388-.91-.475-1.439-.085-.508-.138-1.135-.203-1.898L1.87 6.154H.923a.923.923 0 0 1 0-1.846h4.881l.36-2.498.014-.075C6.402.763 7.237 0 8.283 0h3.742c1.046 0 1.88.763 2.104 1.735l.014.075ZM7.669 4.308h4.968l-.315-2.186c-.059-.206-.209-.276-.299-.276H8.284c-.09 0-.24.07-.299.276L7.67 4.308Zm1.562 5.846a.923.923 0 0 0-1.846 0v6.154a.923.923 0 0 0 1.846 0v-6.154Zm3.692 0a.923.923 0 0 0-1.846 0v6.154a.923.923 0 0 0 1.846 0v-6.154Z" fill="currentColor"/></symbol><symbol viewBox="0 0 24 24" xml:space="preserve" id="draft" xmlns="http://www.w3.org/2000/svg"><path d="M6.5 1.991A2.5 2.5 0 0 0 4 4.49v15.004a2.5 2.5 0 0 0 2.5 2.498h11.107a2.5 2.5 0 0 0 2.5-2.498v-1.876a.551.551 0 0 0-.794-.494.354.354 0 0 0-.206.312v2.058a1.5 1.5 0 0 1-1.5 1.499H6.5a1.5 1.5 0 0 1-1.5-1.5V4.49a1.5 1.5 0 0 1 1.5-1.5h11.107a1.5 1.5 0 0 1 1.5 1.499v2.81a.64.64 0 0 0 .922.575.137.137 0 0 0 .078-.122V4.49a2.5 2.5 0 0 0-2.5-2.498z" data-original="#000000"/><path fill-rule="evenodd" d="M15.833 19.61a.5.5 0 0 1-.775-.417l.002-2.236 4.121-7.643a1.5 1.5 0 0 1 2.641 1.422l-4.12 7.642zm1.107-1.927-.881.582.001-1.056 4.001-7.421a.5.5 0 0 1 .88.474z" clip-rule="evenodd" data-original="#000000"/><path d="M8 7.995a.5.5 0 1 0 0 .999h8a.5.5 0 1 0 0-1zm-.5-2.498a.5.5 0 0 1 .5-.5h8a.5.5 0 1 1 0 1H8a.5.5 0 0 1-.5-.5zm.5 5.495a.5.5 0 1 0 0 1h8a.5.5 0 1 0 0-1zm-.5 3.497a.5.5 0 0 1 .5-.5h6a.5.5 0 1 1 0 1H8a.5.5 0 0 1-.5-.5zm.5 2.498a.5.5 0 1 0 0 .999h6a.5.5 0 1 0 0-1z" data-original="#000000"/></symbol><symbol fill="none" viewBox="0 0 10 6" id="dropdown" xmlns="http://www.w3.org/2000/svg"><path d="M10 1.429 8.438 0 5 3.143 1.563 0 0 1.429 5 6l5-4.571Z" fill="currentColor"/></symbol><symbol xml:space="preserve" viewBox="0 0 512 512" id="exit" xmlns="http://www.w3.org/2000/svg"><path d="M510.371 226.513c-1.088-2.603-2.645-4.971-4.629-6.955l-63.979-63.979c-8.341-8.32-21.824-8.32-30.165 0-8.341 8.341-8.341 21.845 0 30.165l27.584 27.584H320.013c-11.797 0-21.333 9.557-21.333 21.333s9.536 21.333 21.333 21.333h119.168l-27.584 27.584c-8.341 8.341-8.341 21.845 0 30.165 4.16 4.181 9.621 6.251 15.083 6.251s10.923-2.069 15.083-6.251l63.979-63.979c1.984-1.963 3.541-4.331 4.629-6.955a21.356 21.356 0 0 0 0-16.296z" data-original="#000000"/><path d="M362.68 298.667c-11.797 0-21.333 9.557-21.333 21.333v106.667h-85.333V85.333c0-9.408-6.187-17.728-15.211-20.437l-74.091-22.229h174.635v106.667c0 11.776 9.536 21.333 21.333 21.333s21.333-9.557 21.333-21.333v-128C384.013 9.557 374.477 0 362.68 0H21.347c-.768 0-1.451.32-2.197.405-1.003.107-1.92.277-2.88.512a21.476 21.476 0 0 0-6.165 2.645c-.469.299-1.045.32-1.493.661-.172.129-.236.364-.407.492-2.325 1.834-4.266 4.074-5.674 6.741-.299.576-.363 1.195-.597 1.792-.683 1.621-1.429 3.2-1.685 4.992-.107.64.085 1.237.064 1.856-.021.427-.299.811-.299 1.237V448c0 10.176 7.189 18.923 17.152 20.907l213.333 42.667c1.387.299 2.795.427 4.181.427a21.31 21.31 0 0 0 13.525-4.843 21.354 21.354 0 0 0 7.808-16.491v-21.333H362.68c11.797 0 21.333-9.557 21.333-21.333V320c0-11.776-9.536-21.333-21.333-21.333z" data-original="#000000"/></symbol><symbol fill="none" viewBox="0 0 23 24" id="img" xmlns="http://www.w3.org/2000/svg"><path d="M2.632 23.5a2.43 2.43 0 0 1-1.79-.75 2.476 2.476 0 0 1-.745-1.806V3.056c0-.703.248-1.305.745-1.805S1.935.501 2.632.5h17.746c.697 0 1.294.25 1.79.751.498.501.745 1.103.745 1.805v17.888c0 .703-.248 1.305-.744 1.806-.496.5-1.093.75-1.791.75H2.632Zm2.535-5.111h12.676c.253 0 .443-.117.57-.351.127-.235.105-.458-.064-.671l-3.485-4.696a.6.6 0 0 0-.507-.256.6.6 0 0 0-.507.256l-3.296 4.44-2.345-3.162a.6.6 0 0 0-.507-.256.6.6 0 0 0-.507.256L4.66 17.367c-.17.213-.19.436-.064.67.127.235.317.352.57.352Z" fill="currentColor"/></symbol><symbol fill="none" viewBox="0 0 6 10" id="info" xmlns="http://www.w3.org/2000/svg"><path d="M2.098 6.99v-.08c.005-.528.058-.949.157-1.261.103-.313.247-.566.435-.759.187-.193.413-.37.678-.528.17-.108.323-.229.46-.363.136-.133.244-.286.324-.46.08-.173.119-.365.119-.575 0-.253-.06-.472-.179-.656a1.193 1.193 0 0 0-.477-.426 1.397 1.397 0 0 0-.657-.154 1.49 1.49 0 0 0-.626.137c-.199.09-.364.232-.494.426-.131.19-.206.436-.226.737H.316c.02-.511.15-.943.388-1.296.239-.355.554-.623.946-.805A3.09 3.09 0 0 1 2.958.654c.523 0 .98.098 1.373.294.392.194.696.465.911.814.22.347.329.752.329 1.215 0 .318-.05.605-.15.86-.099.253-.241.48-.426.678-.181.199-.4.375-.656.529-.241.15-.437.306-.588.468a1.492 1.492 0 0 0-.324.576 3.013 3.013 0 0 0-.11.822v.08h-1.22Zm.643 2.592a.827.827 0 0 1-.6-.247.825.825 0 0 1-.252-.605c0-.233.084-.432.251-.597a.82.82 0 0 1 .601-.251c.23 0 .43.083.597.251a.8.8 0 0 1 .255.597c0 .156-.04.3-.119.43a.882.882 0 0 1-.307.307.812.812 0 0 1-.426.115Z" fill="currentColor"/></symbol><symbol xml:space="preserve" viewBox="0 0 512 512" id="info-i" xmlns="http://www.w3.org/2000/svg"><path d="M256 0C114.509 0 0 114.496 0 256c0 141.489 114.496 256 256 256 141.491 0 256-114.496 256-256C512 114.511 397.504 0 256 0zm0 476.279c-121.462 0-220.279-98.816-220.279-220.279S134.538 35.721 256 35.721 476.279 134.537 476.279 256 377.462 476.279 256 476.279z" data-original="#000000"/><path d="M256.006 213.397c-15.164 0-25.947 6.404-25.947 15.839v128.386c0 8.088 10.783 16.174 25.947 16.174 14.49 0 26.283-8.086 26.283-16.174V229.234c0-9.434-11.793-15.837-26.283-15.837zm0-79.189c-15.501 0-27.631 11.12-27.631 23.925 0 12.806 12.131 24.263 27.631 24.263 15.164 0 27.296-11.457 27.296-24.263 0-12.805-12.133-23.925-27.296-23.925z" data-original="#000000"/></symbol><symbol viewBox="0 0 512 512.002" xml:space="preserve" id="profile" xmlns="http://www.w3.org/2000/svg"><path d="M210.352 246.633c33.882 0 63.222-12.153 87.195-36.13 23.973-23.972 36.125-53.304 36.125-87.19 0-33.876-12.152-63.211-36.129-87.192C273.566 12.152 244.23 0 210.352 0c-33.887 0-63.22 12.152-87.192 36.125s-36.129 53.309-36.129 87.188c0 33.886 12.156 63.222 36.133 87.195 23.977 23.969 53.313 36.125 87.188 36.125zm215.777 147.07c-.692-9.976-2.09-20.86-4.149-32.351-2.078-11.579-4.753-22.524-7.957-32.528-3.308-10.34-7.808-20.55-13.37-30.336-5.774-10.156-12.555-19-20.165-26.277-7.957-7.613-17.699-13.734-28.965-18.2-11.226-4.44-23.668-6.69-36.976-6.69-5.227 0-10.281 2.144-20.043 8.5a2711.03 2711.03 0 0 1-20.879 13.46c-6.707 4.274-15.793 8.278-27.016 11.903-10.949 3.543-22.066 5.34-33.039 5.34-10.972 0-22.086-1.797-33.047-5.34-11.21-3.622-20.296-7.625-26.996-11.899a2853.13 2853.13 0 0 1-20.898-13.469c-9.75-6.355-14.809-8.5-20.035-8.5-13.313 0-25.75 2.254-36.973 6.7-11.258 4.457-21.004 10.578-28.969 18.199-7.605 7.281-14.39 16.12-20.156 26.273-5.558 9.785-10.058 19.992-13.371 30.34-3.2 10.004-5.875 20.945-7.953 32.524-2.059 11.476-3.457 22.363-4.149 32.363A438.821 438.821 0 0 0 0 423.949c0 26.727 8.496 48.363 25.25 64.32 16.547 15.747 38.441 23.735 65.066 23.735h246.532c26.625 0 48.511-7.984 65.062-23.734 16.758-15.946 25.254-37.586 25.254-64.325-.004-10.316-.351-20.492-1.035-30.242zm0 0" data-original="#000000"/></symbol></svg>